<svg width="239" height="39" viewBox="0 0 239 39" fill="none" xmlns="http://www.w3.org/2000/svg">
<path d="M61.3 0.199951H9.5C4.8 0.199951 0 3.59995 0 11.1C0 18.6 4.7 22 9.4 22L61.2 21.9C61.9 21.9 62.5 21.3 62.5 20.6V1.49995C62.5 0.799951 62 0.199951 61.3 0.199951Z" fill="#1F2B5D"/>
<path d="M16.5 19.0999L16.3 16.1999C16 16.7999 15.7 17.1999 15.3 17.6999C14.9 18.0999 14.5 18.3999 14 18.6999C13.5 18.9999 13 19.0999 12.5 19.2999C12 19.3999 11.4 19.4999 10.8 19.4999C9.6 19.4999 8.5 19.2999 7.5 18.7999C6.6 18.2999 5.8 17.6999 5.2 16.9999C4.6 16.1999 4.1 15.3999 3.8 14.3999C3.5 13.3999 3.3 12.3999 3.3 11.2999C3.3 10.1999 3.5 9.1999 3.8 8.1999C4.1 7.1999 4.6 6.2999 5.2 5.5999C5.8 4.6999 6.6 3.9999 7.5 3.5999C8.4 3.0999 9.5 2.8999 10.8 2.8999C11.6 2.8999 12.4 2.9999 13.2 3.1999C13.9 3.3999 14.6 3.7999 15.2 4.1999C15.8 4.5999 16.3 5.1999 16.7 5.7999C17.1 6.4999 17.4 7.1999 17.5 8.0999H16C16 7.5999 15.8 7.1999 15.5 6.6999C15.2 6.1999 14.9 5.7999 14.5 5.3999C14.1 4.9999 13.5 4.6999 12.9 4.4999C12.3 4.2999 11.6 4.0999 10.9 4.0999C9.8 4.0999 8.9 4.2999 8.2 4.6999C7.3 5.1999 6.7 5.6999 6.2 6.3999C5.8 7.0999 5.4 7.7999 5.2 8.5999C5 9.3999 4.9 10.2999 4.9 11.1999C4.9 12.0999 5 12.8999 5.2 13.6999C5.4 14.4999 5.8 15.2999 6.3 15.8999C6.8 16.5999 7.4 17.0999 8.2 17.4999C9 17.8999 9.9 18.0999 10.9 18.0999C11.8 18.0999 12.6 17.9999 13.2 17.6999C13.9 17.3999 14.5 16.9999 14.9 16.4999C15.4 15.9999 15.7 15.3999 16 14.6999C16.2 13.9999 16.3 13.1999 16.3 12.3999H10.9V11.0999H17.6V19.1999H16.5V19.0999Z" fill="white"/>
<path d="M21.1 3.2998V19.1998H19.7V3.2998H21.1Z" fill="white"/>
<path d="M30.4 7.7998C31.1 8.0998 31.6 8.5998 32.1 9.0998C32.6 9.5998 32.9 10.2998 33.1 10.9998C33.3 11.6998 33.5 12.4998 33.5 13.2998C33.5 14.0998 33.4 14.8998 33.1 15.5998C32.9 16.2998 32.5 16.9998 32.1 17.4998C31.6 17.9998 31.1 18.4998 30.4 18.7998C29.7 19.0998 29 19.2998 28.1 19.2998C27.2 19.2998 26.5 19.0998 25.8 18.7998C25.1 18.4998 24.6 17.9998 24.1 17.4998C23.6 16.9998 23.3 16.2998 23.1 15.5998C22.9 14.8998 22.7 14.0998 22.7 13.2998C22.7 12.4998 22.8 11.6998 23.1 10.9998C23.3 10.2998 23.7 9.5998 24.1 9.0998C24.6 8.5998 25.1 8.0998 25.8 7.7998C26.5 7.4998 27.2 7.2998 28.1 7.2998C29 7.2998 29.8 7.4998 30.4 7.7998ZM26.4 8.8998C25.9 9.1998 25.5 9.5998 25.1 9.9998C24.8 10.4998 24.5 10.9998 24.3 11.5998C24.1 12.1998 24 12.7998 24 13.3998C24 13.9998 24.1 14.5998 24.3 15.1998C24.5 15.7998 24.7 16.2998 25.1 16.7998C25.4 17.2998 25.9 17.5998 26.4 17.8998C26.9 18.1998 27.5 18.2998 28.2 18.2998C28.9 18.2998 29.5 18.1998 30 17.8998C30.5 17.5998 30.9 17.1998 31.3 16.7998C31.6 16.2998 31.9 15.7998 32.1 15.1998C32.3 14.5998 32.4 13.9998 32.4 13.3998C32.4 12.7998 32.3 12.1998 32.1 11.5998C31.9 10.9998 31.7 10.4998 31.3 9.9998C31 9.4998 30.5 9.1998 30 8.8998C29.5 8.5998 28.9 8.4998 28.2 8.4998C27.4 8.4998 26.9 8.5998 26.4 8.8998Z" fill="white"/>
<path d="M36.5 3.2998V9.8998C36.6 9.4998 36.9 9.0998 37.1 8.7998C37.4 8.4998 37.7 8.1998 38 7.9998C38.4 7.7998 38.7 7.5998 39.2 7.4998C39.6 7.3998 40 7.2998 40.4 7.2998C41.3 7.2998 42 7.4998 42.7 7.7998C43.3 8.0998 43.9 8.5998 44.3 9.0998C44.7 9.6998 45 10.2998 45.3 10.9998C45.5 11.6998 45.6 12.4998 45.6 13.2998C45.6 14.0998 45.5 14.8998 45.3 15.5998C45.1 16.2998 44.8 16.9998 44.3 17.4998C43.9 18.0998 43.3 18.4998 42.7 18.7998C42.1 19.0998 41.3 19.2998 40.4 19.2998C39.5 19.2998 38.6 19.0998 37.9 18.6998C37.2 18.2998 36.6 17.6998 36.3 16.8998V19.0998H35V3.2998H36.5ZM44 11.5998C43.9 10.9998 43.6 10.4998 43.3 9.9998C43 9.4998 42.6 9.1998 42.1 8.8998C41.6 8.5998 41.1 8.4998 40.4 8.4998C39.7 8.4998 39 8.5998 38.5 8.8998C38 9.1998 37.6 9.5998 37.3 9.9998C37 10.4998 36.8 10.9998 36.6 11.5998C36.5 12.1998 36.4 12.7998 36.4 13.3998C36.4 13.9998 36.5 14.5998 36.6 15.1998C36.7 15.7998 37 16.2998 37.3 16.7998C37.6 17.2998 38 17.5998 38.5 17.8998C39 18.1998 39.6 18.2998 40.4 18.2998C41.1 18.2998 41.6 18.1998 42.1 17.8998C42.6 17.5998 43 17.1998 43.3 16.7998C43.6 16.2998 43.8 15.7998 44 15.1998C44.1 14.5998 44.2 13.9998 44.2 13.3998C44.2 12.7998 44.2 12.1998 44 11.5998Z" fill="white"/>
<path d="M47.5 9.3998C47.7 8.8998 48.1 8.4998 48.5 8.1998C48.9 7.8998 49.4 7.6998 49.9 7.4998C50.4 7.3998 51.1 7.2998 51.7 7.2998C52.2 7.2998 52.7 7.2998 53.2 7.3998C53.7 7.4998 54.2 7.6998 54.6 7.8998C55 8.1998 55.3 8.4998 55.6 8.9998C55.9 9.5998 56 10.1998 56 10.9998V17.0998C56 17.6998 56.3 17.8998 56.8 17.8998C57 17.8998 57.1 17.8998 57.2 17.7998V18.9998C57 18.9998 56.9 19.0998 56.8 19.0998C56.7 19.0998 56.5 19.0998 56.3 19.0998C55.9 19.0998 55.7 19.0998 55.4 18.9998C55.2 18.8998 55 18.7998 54.9 18.5998C54.8 18.3998 54.7 18.1998 54.7 17.9998C54.7 17.7998 54.6 17.4998 54.6 17.1998C54.3 17.5998 54.1 17.8998 53.8 18.1998C53.5 18.4998 53.3 18.6998 52.9 18.8998C52.6 19.0998 52.2 19.1998 51.8 19.2998C51.4 19.3998 50.9 19.4998 50.3 19.4998C49.8 19.4998 49.3 19.3998 48.8 19.2998C48.3 19.1998 47.9 18.9998 47.6 18.6998C47.3 18.3998 47 18.0998 46.8 17.6998C46.6 17.2998 46.5 16.7998 46.5 16.1998C46.5 15.3998 46.7 14.7998 47 14.2998C47.4 13.7998 47.8 13.4998 48.4 13.2998C49 13.0998 49.6 12.8998 50.4 12.7998C51.1 12.6998 51.9 12.5998 52.6 12.4998C52.9 12.4998 53.2 12.3998 53.4 12.3998C53.6 12.3998 53.8 12.2998 54 12.1998C54.1 12.0998 54.3 11.8998 54.3 11.6998C54.4 11.4998 54.4 11.2998 54.4 10.8998C54.4 10.3998 54.3 9.9998 54.2 9.6998C54.2 9.3998 54 9.0998 53.7 8.9998C53.4 8.7998 53.1 8.6998 52.7 8.5998C52.3 8.4998 51.9 8.4998 51.5 8.4998C50.6 8.4998 49.9 8.6998 49.3 9.0998C48.7 9.4998 48.4 10.1998 48.4 11.0998H47C47.2 10.4998 47.3 9.8998 47.5 9.3998ZM54.5 12.7998C54.4 12.9998 54.2 13.0998 54 13.1998C53.7 13.2998 53.5 13.2998 53.3 13.3998C52.7 13.4998 52.1 13.5998 51.5 13.6998C50.9 13.7998 50.3 13.8998 49.8 14.0998C49.3 14.2998 48.9 14.4998 48.5 14.7998C48.2 14.9998 48 15.3998 48 15.9998C48 16.3998 48.1 16.6998 48.2 16.8998C48.3 17.1998 48.5 17.3998 48.8 17.5998C49 17.7998 49.3 17.9998 49.6 18.0998C49.9 18.1998 50.2 18.2998 50.6 18.2998C51.1 18.2998 51.6 18.1998 52.1 18.0998C52.6 17.8998 53 17.6998 53.4 17.3998C53.8 17.0998 54.1 16.6998 54.3 16.2998C54.5 15.8998 54.6 15.3998 54.6 14.7998L54.5 12.7998Z" fill="white"/>
<path d="M59.7 3.2998V19.1998H58.3V3.2998H59.7Z" fill="white"/>
<path d="M80.2 15.9C79.9 16.6 79.5 17.3 79 17.8C78.5 18.3 77.9 18.8 77.2 19.1C76.5 19.4 75.7 19.6 74.8 19.6C73.6 19.6 72.5 19.4 71.6 18.9C70.7 18.4 70 17.8 69.4 17C68.8 16.2 68.4 15.3 68.1 14.2C67.8 13.1 67.7 12 67.7 10.8C67.7 9.7 67.8 8.7 68.1 7.6C68.4 6.6 68.8 5.7 69.4 4.9C70 4.1 70.7 3.5 71.6 3C72.5 2.5 73.6 2.3 74.8 2.3C76.3 2.3 77.5 2.7 78.6 3.4C79.7 4.1 80.4 5.3 80.7 6.7H83.5C83.3 5.6 83 4.6 82.5 3.8C82 3 81.4 2.2 80.6 1.7C79.8 1.1 79 0.7 78 0.4C77 0.1 76 0 74.9 0C73.3 0 71.9 0.3 70.6 0.9C69.4 1.5 68.3 2.3 67.5 3.3C66.7 4.3 66 5.5 65.6 6.8C65 8.1 64.8 9.5 64.8 11C64.8 12.5 65 13.9 65.4 15.3C65.8 16.6 66.4 17.8 67.2 18.8C68 19.8 69 20.5 70.2 21.1C71.4 21.7 72.8 21.9 74.4 21.9C77.1 21.9 79.2 21.2 80.7 19.7C82.2 18.2 83.1 16.2 83.4 13.6H80.6C80.7 14.4 80.5 15.2 80.2 15.9Z" fill="url(#paint0_linear)"/>
<path d="M89.2 0.5H86.4V21.4H89.2V0.5Z" fill="url(#paint1_linear)"/>
<path d="M111.3 6.8C110.9 5.5 110.3 4.3 109.4 3.3C108.6 2.3 107.5 1.5 106.3 0.9C105 0.3 103.6 0 101.9 0C100.2 0 98.8 0.3 97.5 0.9C96.3 1.5 95.2 2.3 94.4 3.3C93.6 4.3 92.9 5.5 92.5 6.8C92.1 8.1 91.9 9.5 91.9 10.9C91.9 12.3 92.1 13.7 92.5 15C92.9 16.3 93.5 17.5 94.4 18.5C95.2 19.5 96.3 20.3 97.5 20.9C98.7 21.5 100.2 21.8 101.9 21.8C103.6 21.8 105 21.5 106.3 20.9C107.5 20.3 108.6 19.5 109.4 18.5C110.2 17.5 110.9 16.3 111.3 15C111.7 13.7 111.9 12.3 111.9 10.9C111.9 9.5 111.7 8.2 111.3 6.8ZM108.7 14.1C108.4 15.1 108 16 107.4 16.9C106.8 17.7 106.1 18.4 105.1 18.9C104.2 19.4 103.1 19.6 101.8 19.6C100.5 19.6 99.4 19.4 98.5 18.9C97.6 18.4 96.8 17.7 96.2 16.9C95.6 16.1 95.2 15.2 94.9 14.1C94.6 13.1 94.5 12 94.5 11C94.5 9.9 94.6 8.9 94.9 7.9C95.2 6.9 95.6 6 96.2 5.1C96.8 4.3 97.5 3.6 98.5 3.1C99.4 2.6 100.5 2.4 101.8 2.4C103.1 2.4 104.2 2.6 105.1 3.1C106 3.6 106.8 4.3 107.4 5.1C108 5.9 108.4 6.8 108.7 7.9C109 8.9 109.1 10 109.1 11C109.2 12 109 13 108.7 14.1Z" fill="url(#paint2_linear)"/>
<path d="M124.666 12.5761C125.595 11.9791 125.865 10.7417 125.267 9.8123C124.67 8.88292 123.433 8.61348 122.504 9.2105C121.574 9.80752 121.305 11.0449 121.902 11.9743C122.499 12.9037 123.736 13.1731 124.666 12.5761Z" fill="#ABA9D0"/>
<path d="M185.3 25.7C188.6 25.7 189.8 28.3999 189.3 30.7999H182.5C182.7 32.5999 184.3 33.4 186 33.4C187.1 33.4 188.1 33.1 188.8 32.7V34.0999C188 34.4999 186.9 34.7 185.8 34.7C183.3 34.7 181 33.2 181 30.2C181 27.2 183.3 25.7 185.3 25.7ZM185.4 27C183.9 27 182.6 27.9 182.5 29.6H188.1C188.1 28.6 187.6 27 185.4 27Z" fill="#F5872E"/>
<path d="M197.8 25.9001L194.6 30.1001L197.9 34.5001H196.3L193.8 31.1001L191.3 34.5001H189.7L193 30.1001L189.8 25.9001H191.4L193.7 29.1001L196 25.9001H197.8Z" fill="#F5872E"/>
<path d="M203.9 25.7C206.4 25.7 208.2 27.6 208.2 30.2C208.2 32.8 206.4 34.7 203.9 34.7C202.3 34.7 201.2 33.9 200.6 33.2V38.4H199.2V25.9H200.5V27.2999C201.2 26.3999 202.2 25.7 203.9 25.7ZM203.7 27C203 27 202.4 27.2 201.9 27.5C201 28.1 200.5 29.1 200.5 30.2C200.5 31.3 201 32.3 201.9 32.9C202.4 33.2 203 33.4 203.7 33.4C205.4 33.4 206.7 32.2 206.7 30.2C206.7 28.2 205.4 27 203.7 27Z" fill="#F5872E"/>
<path d="M213.5 25.7C216.8 25.7 218 28.3999 217.5 30.7999H210.7C210.9 32.5999 212.5 33.4 214.2 33.4C215.3 33.4 216.3 33.1 217 32.7V34.0999C216.2 34.4999 215.1 34.7 214 34.7C211.5 34.7 209.2 33.2 209.2 30.2C209.2 27.2 211.4 25.7 213.5 25.7ZM213.6 27C212.1 27 210.8 27.9 210.7 29.6H216.3C216.3 28.6 215.7 27 213.6 27Z" fill="#F5872E"/>
<path d="M232.6 28.1C232.6 27.3 233.6 27 234.5 27C235.5 27 236.7 27.3 237.5 27.8V26.4C236.7 26 235.6 25.7001 234.5 25.7001C232.9 25.7001 231.2 26.4001 231.2 28.2001C231.2 31.3001 236.7 30.6001 236.7 32.4001C236.7 33.3001 235.7 33.5 234.5 33.5C233.4 33.5 232.1 33.2 231.2 32.6C230.7 32.9 229.7 33.5 228.6 33.5C227.3 33.5 226.8 33.1 226.8 31.8V27.4H230.1L230.8 26H226.8V23.3H225.4V26H223.4C222 26 221.1 26.5 220.5 27.5V26H219.2V34.6H220.6V29.2001C220.6 28.2001 222 27.3 223.3 27.3H225.3V31.9C225.3 33.8 226.5 34.7001 228.1 34.7001C229.3 34.7001 230.5 34.2001 231.1 33.9001C231.9 34.4001 233.2 34.7001 234.4 34.7001C236.3 34.7001 237.9 34.1 237.9 32.3C238.1 29.2 232.6 30.0001 232.6 28.1Z" fill="#F5872E"/>
<path d="M142.4 1.5H135.8V20.5H142.4C145.3 20.5 147.7 19.6 149.4 17.8C151.1 16 152.1 13.5 152 10.8C152 6.2 149 1.5 142.4 1.5ZM138 3.5H142.4C147.5 3.5 149.9 7.2 149.9 10.8C149.9 12.9 149.2 15 147.8 16.4C146.5 17.8 144.6 18.5 142.3 18.5H138V3.5Z" fill="#1F2B5D"/>
<path d="M158.3 1.5H156.2V20.5H158.3V1.5Z" fill="#1F2B5D"/>
<path d="M170.7 12.2H177.1V13.5C177.1 16.4 174.8 18.7001 171.9 18.7001C166.5 18.7001 164.2 14.8 164.2 11C164.2 8.80005 165 6.70005 166.4 5.30005C167.8 3.90005 169.7 3.20005 172 3.20005C174.1 3.20005 176.2 4.00005 177.6 5.50005L177.9 5.80005L179.2 4.40005L179.1 4.30005C177.2 2.40005 174.6 1.30005 171.9 1.30005C169.1 1.30005 166.7 2.30005 164.9 4.00005C163.1 5.80005 162.2 8.20005 162.2 11.1C162.2 15.9 165.2 20.8 172 20.8C172.3 20.8 172.7 20.8 173 20.8C176.5 20.5 179.2 17.4 179.2 13.9V10.3H170.8V12.2H170.7Z" fill="#1F2B5D"/>
<path d="M185.7 1.5H183.6V20.5H185.7V1.5Z" fill="#1F2B5D"/>
<path d="M189.7 3.5H196.4V20.5H198.5V3.5H205.1V1.5H189.7V3.5Z" fill="#1F2B5D"/>
<path d="M212 1.5L203.5 20.5H205.8L207.8 16H218.3L220.3 20.5H222.6L214.1 1.5H212ZM217.4 14H208.6L213 4.1L217.4 14Z" fill="#1F2B5D"/>
<path d="M227.7 18.5V1.5H225.6V20.5H238.1V18.5H227.7Z" fill="#1F2B5D"/>
<defs>
<linearGradient id="paint0_linear" x1="74.1611" y1="25.2558" x2="74.1611" y2="3.4142" gradientUnits="userSpaceOnUse">
<stop stop-color="#ED2A24"/>
<stop offset="1" stop-color="#FCB424"/>
</linearGradient>
<linearGradient id="paint1_linear" x1="87.7431" y1="25.2558" x2="87.7431" y2="3.4142" gradientUnits="userSpaceOnUse">
<stop stop-color="#ED2A24"/>
<stop offset="1" stop-color="#FCB424"/>
</linearGradient>
<linearGradient id="paint2_linear" x1="101.925" y1="25.2558" x2="101.925" y2="3.4142" gradientUnits="userSpaceOnUse">
<stop stop-color="#ED2A24"/>
<stop offset="1" stop-color="#FCB424"/>
</linearGradient>
</defs>
</svg>
