<svg width="16" height="20" viewBox="0 0 16 20" fill="none" xmlns="http://www.w3.org/2000/svg">
<path fill-rule="evenodd" clip-rule="evenodd" d="M0 19C0 19.6001 0.399994 20 1 20H15C15.6 20 16 19.6001 16 19V5C16 4.69995 15.9 4.5 15.7 4.30005L11.7 0.300049C11.5 0.100098 11.3 0 11 0H1C0.399994 0 0 0.399902 0 1V19ZM14 18H2V2H10.6L14 5.3999V18ZM9.70001 3.2998L12.7 6.2998C13 6.59985 13.1 7 12.9 7.3999C12.8 7.7998 12.4 8 12 8H8V4C8 3.59985 8.20001 3.2998 8.60001 3.09985C9 2.8999 9.40001 3 9.70001 3.2998Z" fill="#0084F4"/>
</svg>
