<svg width="209" height="54" viewBox="0 0 209 54" fill="none" xmlns="http://www.w3.org/2000/svg">
<path d="M70.9617 38.6454V22.2556H61.507V38.6454H58.5503V19.6677H73.8497V38.6454H70.9617Z" fill="black"/>
<path d="M90.6962 31.5029C90.6962 35.9195 88.3239 38.7834 84.7483 38.7834C82.7199 38.7834 81.104 37.8863 80.2444 36.299H80.1757V43.3035H77.3565V24.3949H80.1069V26.7757H80.1757C80.9664 25.223 82.7199 24.2569 84.7139 24.2569C88.3239 24.2224 90.6962 27.0863 90.6962 31.5029ZM87.8082 31.5029C87.8082 28.57 86.2954 26.6377 83.9919 26.6377C81.7572 26.6377 80.2101 28.6045 80.2101 31.5029C80.2101 34.4358 81.7572 36.368 83.9919 36.368C86.2954 36.368 87.8082 34.4703 87.8082 31.5029Z" fill="black"/>
<path d="M92.5871 31.5029C92.5871 27.0173 95.2344 24.1879 99.3257 24.1879C103.417 24.1879 106.03 27.0173 106.03 31.5029C106.03 35.9885 103.417 38.8179 99.3257 38.8179C95.2344 38.8179 92.5871 36.023 92.5871 31.5029ZM103.176 31.5029C103.176 28.3974 101.732 26.5342 99.3257 26.5342C96.9191 26.5342 95.4751 28.3974 95.4751 31.5029C95.4751 34.6083 96.9191 36.4371 99.3257 36.4371C101.732 36.4716 103.176 34.6428 103.176 31.5029Z" fill="black"/>
<path d="M120.779 34.4703C120.367 37.0236 117.857 38.8179 114.694 38.8179C110.568 38.8179 107.99 36.023 107.99 31.5719C107.99 27.1208 110.568 24.1879 114.556 24.1879C118.441 24.1879 120.917 26.9137 120.917 31.2268V32.2275H110.843V32.4C110.843 34.8843 112.39 36.5061 114.728 36.5061C116.379 36.5061 117.685 35.7125 118.063 34.4703H120.779ZM110.843 30.2262H118.063C117.994 28.0179 116.585 26.5342 114.522 26.5342C112.493 26.5342 111.015 28.0179 110.843 30.2262Z" fill="black"/>
<path d="M135.632 38.6454H132.09L126.349 32.0205H126.246V38.6454H123.427V24.3949H126.246V30.5367H126.349L132.022 24.3949H135.391L129.065 31.1233L135.632 38.6454Z" fill="black"/>
<path d="M148.249 26.6377H143.746V38.6454H140.961V26.6377H136.457V24.3949H148.249V26.6377Z" fill="black"/>
<path d="M157.051 26.6377V38.6454H154.232V24.3949H163.618V26.6377H157.051Z" fill="black"/>
<path d="M165.027 31.5029C165.027 27.0173 167.674 24.1879 171.766 24.1879C175.857 24.1879 178.47 27.0173 178.47 31.5029C178.47 35.9885 175.857 38.8179 171.766 38.8179C167.64 38.8179 165.027 36.023 165.027 31.5029ZM175.582 31.5029C175.582 28.3974 174.138 26.5342 171.731 26.5342C169.325 26.5342 167.881 28.3974 167.881 31.5029C167.881 34.6083 169.325 36.4371 171.731 36.4371C174.172 36.4716 175.582 34.6428 175.582 31.5029Z" fill="black"/>
<path d="M179.708 42.4064V36.4026H180.877C181.908 35.747 182.389 33.9872 182.527 32.0895L183.043 24.3949H193.322V36.4026H195.557V42.4064H192.944V38.6454H182.355V42.4064H179.708ZM190.503 26.6377H185.484L185.071 32.193C184.968 33.8837 184.624 35.3674 183.936 36.299V36.4026H190.469V26.6377H190.503Z" fill="black"/>
<path d="M196.898 34.5738C196.898 32.0895 198.823 30.6403 202.33 30.3987L206.181 30.1917V29.0875C206.181 27.4658 205.081 26.5687 203.19 26.5687C201.643 26.5687 200.508 27.3623 200.267 28.6045H197.62C197.689 26.0856 200.095 24.2224 203.293 24.2224C206.765 24.2224 209 26.0511 209 28.8805V38.6454H206.284V36.2645H206.215C205.424 37.8173 203.671 38.7834 201.711 38.7834C198.858 38.7834 196.898 37.1272 196.898 34.5738ZM206.181 33.2971V32.193L202.708 32.4345C200.783 32.538 199.752 33.2626 199.752 34.5393C199.752 35.747 200.817 36.5406 202.433 36.5406C204.599 36.5061 206.181 35.1604 206.181 33.2971Z" fill="black"/>
<path d="M58.0345 15.2856V8.17764H60.9225C62.1602 8.17764 62.9854 8.86773 62.9854 9.93738C62.9854 10.6965 62.4353 11.3521 61.7477 11.4901V11.5246C62.7103 11.6281 63.3635 12.3182 63.3635 13.2498C63.3635 14.492 62.4697 15.2511 60.9569 15.2511H58.0345V15.2856ZM59.1347 11.1796H60.4412C61.4038 11.1796 61.9196 10.8 61.9196 10.0754C61.9196 9.41981 61.4726 9.04026 60.6819 9.04026H59.1347V11.1796ZM60.7162 14.3885C61.7133 14.3885 62.229 13.9744 62.229 13.2153C62.229 12.4562 61.6789 12.0422 60.6475 12.0422H59.1347V14.3885H60.7162Z" fill="#3D3D3D"/>
<path d="M64.3262 9.93738H65.392V11.5936H66.389C67.6267 11.5936 68.4175 12.3182 68.4175 13.4224C68.4175 14.561 67.6267 15.2511 66.389 15.2511H64.3262V9.93738ZM65.3576 12.4217V14.423H66.2859C66.9391 14.423 67.3517 14.0089 67.3517 13.4224C67.3517 12.8013 66.9391 12.4217 66.2859 12.4217H65.3576ZM69.0364 9.93738H70.1021V15.2856H69.0364V9.93738Z" fill="#3D3D3D"/>
<path d="M71.0648 12.1457C71.0648 9.14377 71.9243 7.9361 73.9528 7.83259H74.3997C74.9498 7.79808 75.5343 7.69457 75.775 7.55655V8.45367C75.6374 8.59169 75.0874 8.72971 74.4341 8.72971H73.9872C72.5432 8.76422 72.0962 9.45431 71.89 11.007H71.9243C72.2681 10.3859 72.9214 10.0409 73.7465 10.0409C75.1905 10.0409 76.1188 11.0415 76.1188 12.6288C76.1188 14.3195 75.1561 15.3546 73.5746 15.3546C71.9587 15.3891 71.0648 14.285 71.0648 12.1457ZM75.053 12.6633C75.053 11.5591 74.5029 10.938 73.609 10.938C72.6807 10.938 72.165 11.5591 72.165 12.6633C72.165 13.8019 72.6807 14.4575 73.609 14.4575C74.5373 14.4575 75.053 13.8364 75.053 12.6633Z" fill="#3D3D3D"/>
<path d="M76.8752 12.5942C76.8752 10.9035 77.8722 9.86837 79.3849 9.86837C80.9321 9.86837 81.8947 10.938 81.8947 12.5942C81.8947 14.2505 80.9321 15.3201 79.3849 15.3201C77.8378 15.3201 76.8752 14.285 76.8752 12.5942ZM80.8289 12.5942C80.8289 11.4211 80.2788 10.731 79.3849 10.731C78.491 10.731 77.9409 11.4211 77.9409 12.5942C77.9409 13.7674 78.491 14.4575 79.3849 14.4575C80.2788 14.4575 80.8289 13.7674 80.8289 12.5942Z" fill="#3D3D3D"/>
<path d="M87.8426 12.5942C87.8426 14.2505 86.9487 15.3201 85.6078 15.3201C84.8514 15.3201 84.2326 14.9751 83.9232 14.3885H83.8888V17.0109H82.8574V9.93738H83.8888V10.8345H83.9232C84.2326 10.2479 84.8858 9.90288 85.6078 9.90288C86.9487 9.86837 87.8426 10.938 87.8426 12.5942ZM86.7424 12.5942C86.7424 11.4901 86.1579 10.7655 85.2984 10.7655C84.4389 10.7655 83.8888 11.4901 83.8888 12.5942C83.8888 13.6984 84.4733 14.423 85.2984 14.423C86.1923 14.423 86.7424 13.6984 86.7424 12.5942Z" fill="#3D3D3D"/>
<path d="M94.6156 10.7655H92.1402V15.2511H91.1087V9.93738H95.647V15.2856H94.5812V10.7655H94.6156Z" fill="#3D3D3D"/>
<path d="M101.835 12.5942C101.835 14.2505 100.942 15.3201 99.6008 15.3201C98.8444 15.3201 98.2255 14.9751 97.9161 14.3885H97.8817V17.0109H96.8159V9.93738H97.8473V10.8345H97.8817C98.1911 10.2479 98.8444 9.90288 99.5664 9.90288C100.942 9.86837 101.835 10.938 101.835 12.5942ZM100.735 12.5942C100.735 11.4901 100.151 10.7655 99.2913 10.7655C98.4318 10.7655 97.8817 11.4901 97.8817 12.5942C97.8817 13.6984 98.4662 14.423 99.2913 14.423C100.185 14.423 100.735 13.6984 100.735 12.5942Z" fill="#3D3D3D"/>
<path d="M102.523 12.5942C102.523 10.9035 103.52 9.86837 105.033 9.86837C106.58 9.86837 107.543 10.938 107.543 12.5942C107.543 14.2505 106.58 15.3201 105.033 15.3201C103.52 15.3201 102.523 14.285 102.523 12.5942ZM106.477 12.5942C106.477 11.4211 105.927 10.731 105.033 10.731C104.139 10.731 103.589 11.4211 103.589 12.5942C103.589 13.7674 104.139 14.4575 105.033 14.4575C105.961 14.4575 106.477 13.7674 106.477 12.5942Z" fill="#3D3D3D"/>
<path d="M108.299 12.5942C108.299 10.938 109.399 9.86837 111.084 9.86837V8.14313H112.115V9.86837C113.8 9.90288 114.9 10.938 114.9 12.5942C114.9 14.2505 113.8 15.3201 112.115 15.3201V17.0109H111.084V15.3201C109.399 15.3201 108.299 14.2505 108.299 12.5942ZM111.084 10.731C110.018 10.7655 109.365 11.4556 109.365 12.5942C109.365 13.7329 110.052 14.4575 111.084 14.4575V10.731ZM112.115 10.731V14.492C113.147 14.4575 113.834 13.7674 113.834 12.6288C113.834 11.4556 113.147 10.7655 112.115 10.731Z" fill="#3D3D3D"/>
<path d="M120.401 13.6984C120.264 14.6645 119.301 15.3201 118.132 15.3201C116.585 15.3201 115.622 14.285 115.622 12.5943C115.622 10.938 116.585 9.83387 118.098 9.83387C119.542 9.83387 120.47 10.8345 120.47 12.4562V12.8358H116.688V12.9048C116.688 13.8364 117.272 14.423 118.132 14.423C118.751 14.423 119.232 14.1125 119.37 13.6639H120.401V13.6984ZM116.688 12.1112H119.404C119.37 11.2831 118.854 10.731 118.098 10.731C117.307 10.731 116.757 11.2831 116.688 12.1112Z" fill="#3D3D3D"/>
<path d="M124.905 11.6281C124.767 11.1105 124.355 10.7655 123.667 10.7655C122.808 10.7655 122.258 11.4901 122.258 12.5942C122.258 13.7329 122.842 14.423 123.702 14.423C124.355 14.423 124.802 14.1125 124.939 13.5604H125.971C125.799 14.5955 124.939 15.3201 123.702 15.3201C122.189 15.3201 121.192 14.285 121.192 12.5942C121.192 10.938 122.189 9.86837 123.667 9.86837C124.974 9.86837 125.799 10.662 125.936 11.6281H124.905Z" fill="#3D3D3D"/>
<path d="M130.303 11.6281C130.165 11.1105 129.753 10.7655 129.065 10.7655C128.205 10.7655 127.655 11.4901 127.655 12.5942C127.655 13.7329 128.24 14.423 129.099 14.423C129.753 14.423 130.2 14.1125 130.337 13.5604H131.369C131.197 14.5955 130.337 15.3201 129.099 15.3201C127.587 15.3201 126.59 14.285 126.59 12.5942C126.59 10.938 127.587 9.86837 129.065 9.86837C130.371 9.86837 131.197 10.662 131.334 11.6281H130.303Z" fill="#3D3D3D"/>
<path d="M132.228 15.2856V9.93738H133.259V13.6984H133.294L135.838 9.93738H136.869V15.2856H135.838V11.4901H135.804L133.259 15.2856H132.228Z" fill="#3D3D3D"/>
<path d="M137.866 12.5942C137.866 10.9035 138.863 9.86837 140.376 9.86837C141.923 9.86837 142.886 10.938 142.886 12.5942C142.886 14.2505 141.923 15.3201 140.376 15.3201C138.829 15.3201 137.866 14.285 137.866 12.5942ZM141.82 12.5942C141.82 11.4211 141.27 10.731 140.376 10.731C139.482 10.731 138.932 11.4211 138.932 12.5942C138.932 13.7674 139.482 14.4575 140.376 14.4575C141.27 14.4575 141.82 13.7674 141.82 12.5942Z" fill="#3D3D3D"/>
<path d="M147.39 12.9393H144.88V15.2856H143.814V9.93738H144.88V12.0767H147.39V9.93738H148.456V15.2856H147.39V12.9393Z" fill="#3D3D3D"/>
<path d="M149.384 13.7329C149.384 12.8013 150.106 12.2492 151.412 12.1802L152.856 12.1112V11.6971C152.856 11.076 152.444 10.7655 151.756 10.7655C151.172 10.7655 150.759 11.076 150.656 11.5246H149.659C149.693 10.593 150.587 9.86837 151.791 9.86837C153.097 9.86837 153.922 10.5585 153.922 11.6281V15.2856H152.925V14.3885H152.891C152.581 14.9751 151.928 15.3201 151.206 15.3201C150.14 15.3201 149.384 14.699 149.384 13.7329ZM152.856 13.2498V12.8358L151.55 12.9393C150.828 12.9738 150.45 13.2498 150.45 13.7329C150.45 14.1815 150.862 14.492 151.447 14.492C152.272 14.4575 152.856 13.9744 152.856 13.2498Z" fill="#3D3D3D"/>
<path d="M154.954 15.3201C154.782 15.3201 154.644 15.2856 154.575 15.2511V14.3195C154.61 14.3195 154.713 14.354 154.85 14.354C155.366 14.354 155.572 13.7329 155.607 12.8013L155.813 9.93738H159.492V15.2856H158.426V10.8H156.741L156.604 12.8703C156.501 14.354 156.123 15.3201 154.954 15.3201Z" fill="#3D3D3D"/>
<path d="M160.454 12.5942C160.454 10.9035 161.452 9.86837 162.964 9.86837C164.511 9.86837 165.474 10.938 165.474 12.5942C165.474 14.2505 164.511 15.3201 162.964 15.3201C161.417 15.3201 160.454 14.285 160.454 12.5942ZM164.408 12.5942C164.408 11.4211 163.858 10.731 162.964 10.731C162.07 10.731 161.52 11.4211 161.52 12.5942C161.52 13.7674 162.07 14.4575 162.964 14.4575C163.858 14.4575 164.408 13.7674 164.408 12.5942Z" fill="#3D3D3D"/>
<path d="M166.437 9.93738H168.878C169.909 9.93738 170.528 10.455 170.528 11.2831C170.528 11.8351 170.15 12.3527 169.634 12.4217V12.4562C170.322 12.5597 170.769 13.0428 170.769 13.6984C170.769 14.63 170.047 15.2511 168.912 15.2511H166.471V9.93738H166.437ZM167.468 10.6965V12.1112H168.534C169.153 12.1112 169.462 11.8696 169.462 11.3866C169.462 10.938 169.187 10.6965 168.637 10.6965H167.468ZM167.468 12.8703V14.492H168.74C169.359 14.492 169.703 14.216 169.703 13.6984C169.703 13.1463 169.325 12.9048 168.603 12.9048H167.468V12.8703Z" fill="#3D3D3D"/>
<path d="M0 40.5086L23.3101 43.5105L23.4476 54L0 40.5086Z" fill="#F55636"/>
<path d="M0 40.5086L9.14525 18.7706L0.171903 13.3879L0 40.5086Z" fill="url(#paint0_linear)"/>
<path d="M23.6883 0L37.5437 18.5636L46.6889 13.2153L23.6883 0Z" fill="#FAC210"/>
<path d="M23.3101 43.5105L37.5437 18.5636L9.14525 18.7706L23.3101 43.5105Z" fill="url(#paint1_linear)"/>
<path d="M46.6889 13.2153L37.5437 18.5636L46.8264 40.3361L46.6889 13.2153Z" fill="#F79233"/>
<path d="M37.5437 18.5636L46.8264 40.3361L23.3101 43.5105L37.5437 18.5636Z" fill="#F99D31"/>
<path d="M37.5437 18.5636L23.6883 0L9.14525 18.7706L37.5437 18.5636Z" fill="url(#paint2_linear)"/>
<path d="M9.14525 18.7706L23.3101 43.5105L0 40.5086L9.14525 18.7706Z" fill="url(#paint3_linear)"/>
<path d="M23.3101 43.5105L46.8264 40.3361L23.4476 54L23.3101 43.5105Z" fill="#E54636"/>
<path d="M9.14526 18.7706L23.6883 0L0.171906 13.3879L9.14526 18.7706Z" fill="url(#paint4_linear)"/>
<path d="M4.33196 37.1617C4.50387 35.885 5.329 35.1949 6.42918 35.3329C7.32308 35.4364 7.94193 36.092 7.94193 36.9546L7.32308 36.8856C7.2887 36.368 6.91051 35.954 6.36042 35.885C5.63843 35.7815 5.08834 36.3335 4.9852 37.2652C4.84767 38.1968 5.26024 38.8524 5.98224 38.9559C6.53233 39.0249 6.97927 38.7834 7.15118 38.3348L7.77003 38.4038C7.49499 39.1974 6.80737 39.6115 5.91348 39.508C4.77891 39.3355 4.16006 38.4383 4.33196 37.1617Z" fill="#FF752B"/>
<path d="M8.6983 39.784L9.21401 35.7815L9.83287 35.8505L9.31716 39.853L8.6983 39.784Z" fill="#FF752B"/>
<path d="M14.4743 38.5073C14.3024 39.784 13.4772 40.4741 12.3427 40.3361C11.2081 40.1981 10.5892 39.301 10.7611 38.0243C10.9331 36.7476 11.7582 36.0575 12.8927 36.1955C14.0273 36.3335 14.6462 37.2307 14.4743 38.5073ZM11.38 38.0933C11.2425 39.0249 11.655 39.6805 12.4114 39.784C13.1678 39.8875 13.7179 39.37 13.8554 38.4383C13.9929 37.5067 13.5804 36.8511 12.824 36.7476C12.0676 36.6441 11.4831 37.1617 11.38 38.0933Z" fill="#FF752B"/>
<path d="M13.9929 22.6007C13.9929 21.3585 14.6805 20.5649 15.7807 20.5304C16.6746 20.5304 17.3622 21.048 17.4654 21.8761H16.8465C16.7434 21.3585 16.2964 21.048 15.7807 21.048C15.0587 21.048 14.6118 21.6346 14.6118 22.5662C14.6118 23.4978 15.0931 24.0844 15.8151 24.0499C16.3652 24.0499 16.7434 23.7739 16.8809 23.2908H17.4997C17.3622 24.1189 16.7434 24.602 15.8495 24.602C14.7149 24.6365 13.9929 23.8774 13.9929 22.6007Z" fill="#FFA419"/>
<path d="M21.0753 24.5325H18.5656L18.5312 20.599L21.041 20.5645V21.0821L19.15 21.1166V22.2552L20.9378 22.2207V22.7383L19.1844 22.7728V24.015L21.0753 23.9805V24.5325Z" fill="#FFA419"/>
<path d="M25.7855 22.4971C25.7855 23.7393 25.0979 24.5329 23.9633 24.5674C22.8288 24.5674 22.1068 23.8083 22.1068 22.5316C22.1068 21.2895 22.7944 20.4958 23.9289 20.4613C25.0635 20.4613 25.7855 21.255 25.7855 22.4971ZM22.7256 22.5316C22.7256 23.4633 23.2069 24.0153 23.9633 24.0153C24.7197 24.0153 25.1666 23.4288 25.1666 22.4971C25.1666 21.5655 24.6853 21.0134 23.9289 21.0134C23.1726 21.0134 22.7256 21.6 22.7256 22.5316Z" fill="#FFA419"/>
<g opacity="0.8">
<path opacity="0.8" d="M31.4239 38.7489C31.252 37.5067 31.8709 36.6441 32.971 36.5061C33.8649 36.4026 34.5869 36.8511 34.7932 37.6447L34.2087 37.7137C34.0368 37.2307 33.5899 36.9546 33.0398 37.0236C32.3178 37.1272 31.9396 37.7482 32.0771 38.6799C32.1803 39.6115 32.7304 40.1291 33.4524 40.0256C34.0025 39.9566 34.3463 39.6115 34.415 39.1284L35.0339 39.0594C34.9995 39.8875 34.4494 40.4396 33.5555 40.5431C32.3866 40.6812 31.5958 39.9911 31.4239 38.7489Z" fill="#F76624"/>
<path opacity="0.8" d="M37.1311 36.023C38.3 35.885 39.0564 36.5061 39.2283 37.7482C39.4002 38.9904 38.7814 39.8185 37.6468 39.9566L36.2372 40.1291L35.7215 36.1955L37.1311 36.023ZM36.7529 39.508L37.4749 39.4045C38.3 39.301 38.7126 38.7144 38.5751 37.8173C38.4719 36.8856 37.9219 36.4371 37.0967 36.5406L36.3747 36.6441L36.7529 39.508Z" fill="#F76624"/>
<path opacity="0.8" d="M43.7322 37.1617C43.9041 38.4038 43.2852 39.2665 42.1507 39.4045C41.0161 39.5425 40.2254 38.8524 40.0535 37.6102C39.8816 36.368 40.5004 35.5054 41.635 35.3329C42.7695 35.2294 43.5603 35.9195 43.7322 37.1617ZM40.7067 37.5757C40.8098 38.4728 41.3599 38.9904 42.1163 38.9214C42.8727 38.8179 43.2509 38.1968 43.1477 37.2652C43.0446 36.3335 42.4945 35.8505 41.7381 35.9195C40.9817 36.023 40.5692 36.6441 40.7067 37.5757Z" fill="#F76624"/>
</g>
<defs>
<linearGradient id="paint0_linear" x1="10.1817" y1="15.3904" x2="-5.8713" y2="33.6706" gradientUnits="userSpaceOnUse">
<stop stop-color="#FCC99C"/>
<stop offset="1" stop-color="#FAAE68"/>
</linearGradient>
<linearGradient id="paint1_linear" x1="12.3209" y1="14.7847" x2="37.5247" y2="37.2344" gradientUnits="userSpaceOnUse">
<stop stop-color="#FDD399"/>
<stop offset="1" stop-color="#FBB654"/>
</linearGradient>
<linearGradient id="paint2_linear" x1="17.8901" y1="14.201" x2="42.6558" y2="4.70996" gradientUnits="userSpaceOnUse">
<stop stop-color="#FFE86E"/>
<stop offset="0.999" stop-color="#FFD70A"/>
</linearGradient>
<linearGradient id="paint3_linear" x1="11.9713" y1="15.9981" x2="11.5879" y2="48.0888" gradientUnits="userSpaceOnUse">
<stop stop-color="#F9BA90"/>
<stop offset="1" stop-color="#F68A45"/>
</linearGradient>
<linearGradient id="paint4_linear" x1="13.109" y1="17.6619" x2="10.8087" y2="-3.73021" gradientUnits="userSpaceOnUse">
<stop stop-color="#FFE86E"/>
<stop offset="0.999" stop-color="#FFD70A"/>
</linearGradient>
</defs>
</svg>
